# xmcd CD database file
#
# Track frame offsets:
#	150
#	24851
#	44070
#	59899
#	79989
#	95721
#	110047
#	133791
#	151399
#	168087
#	186277
#	202385
#	224582
#	238266
#	265543
#	291867
#	312392
#
# Disc length: 4518 seconds
#
# Revision: 0
# Processed by: cddbd v1.5.2PL0 Copyright (c) Steve Scherf et al.
# Submitted via: CDex 1.70beta2
#
DISCID=1011a411
DTITLE=Art Farmere - Art and Meet The Jazztet and Big City Sounds
DYEAR=1960
DGENRE=Jazz
TTITLE0=I'm a Fool To Whant you
TTITLE1=That ole Devil Called Love
TTITLE2=Serenata
TTITLE3=It ain't necessarily
TTITLE4=Avalon
TTITLE5=I remember Cliffor
TTITLE6=Blues March
TTITLE7=It's all right with me
TTITLE8=Park Avenue Petite
TTITLE9=Mox Nix
TTITLE10=Easy Living
TTITLE11=Killer Joe
TTITLE12=The Cool One
TTITLE13=Blues on Down
TTITLE14=Hi-Fly
TTITLE15=My funny Valentine
TTITLE16=Wonder Why
EXTD=YEAR: 1960
EXTT0=
EXTT1=
EXTT2=
EXTT3=
EXTT4=
EXTT5=
EXTT6=
EXTT7=
EXTT8=
EXTT9=
EXTT10=
EXTT11=
EXTT12=
EXTT13=
EXTT14=
EXTT15=
EXTT16=
PLAYORDER=
